<svg width="67" height="67" viewBox="0 0 67 67" fill="none" xmlns="http://www.w3.org/2000/svg">
<g id="Group 34066">
<circle id="Ellipse 215" cx="33.5" cy="33.5" r="33.5" fill="white"/>
<g id="Group 34055">
<path id="Vector" d="M46.5127 52.7936C42.769 55.295 38.3677 56.6301 33.8652 56.6302C27.8297 56.6231 22.0434 54.2223 17.7756 49.9545C13.5079 45.6868 11.1071 39.9005 11.1 33.865C11.1 29.3625 12.4352 24.9612 14.9366 21.2175C17.4381 17.4738 20.9935 14.5559 25.1533 12.8329C29.313 11.1099 33.8903 10.659 38.3063 11.5374C42.7223 12.4158 46.7787 14.584 49.9624 17.7677C53.1462 20.9515 55.3143 25.0078 56.1927 29.4238C57.0711 33.8398 56.6203 38.4171 54.8973 42.5769C53.1742 46.7367 50.2564 50.2921 46.5127 52.7936Z" fill="#353748" stroke="#353748" stroke-width="0.2"/>
<path id="Vector_2" d="M34.0136 35.4658L34.3672 35.8193L39.5312 40.9834C39.8616 41.301 40.3033 41.4767 40.7617 41.4727C41.2215 41.4687 41.6613 41.2843 41.9864 40.9592C42.3115 40.6341 42.4959 40.1943 42.4999 39.7345C42.5039 39.2761 42.3282 38.8344 42.0106 38.504L36.8465 33.3399L36.493 32.9864L36.8465 32.6328L42.0106 27.4688C42.3282 27.1384 42.5039 26.6967 42.4999 26.2383C42.4959 25.7785 42.3115 25.3387 41.9864 25.0136C41.6613 24.6885 41.2215 24.5041 40.7617 24.5001C40.3033 24.4961 39.8616 24.6718 39.5312 24.9894L34.3672 30.1535L34.0136 30.507L33.6601 30.1535L28.496 24.9894C28.1656 24.6718 27.7239 24.4961 27.2655 24.5001C26.8057 24.5041 26.3659 24.6885 26.0408 25.0136C25.7157 25.3387 25.5313 25.7785 25.5273 26.2383C25.5233 26.6967 25.699 27.1384 26.0166 27.4688L31.1807 32.6328L31.5342 32.9864L31.1807 33.3399L26.0134 38.5072C26.0134 38.5072 26.0134 38.5073 26.0134 38.5073C25.6847 38.8361 25.5 39.282 25.5 39.747C25.5 40.2119 25.6846 40.6578 26.0133 40.9866C26.0133 40.9866 26.0134 40.9867 26.0134 40.9867M34.0136 35.4658L25.6598 41.3402L26.0134 40.9867M34.0136 35.4658L33.6601 35.8193L28.4928 40.9866C28.1639 41.3153 27.718 41.5 27.253 41.5C26.7881 41.5 26.3422 41.3154 26.0134 40.9867M34.0136 35.4658L26.0134 40.9867" fill="white" stroke="#353748"/>
</g>
</g>
</svg>
