<svg width="16" height="16" viewBox="0 0 16 16" fill="none" xmlns="http://www.w3.org/2000/svg">
<g id="Group 34124">
<g id="Group">
<g id="Group_2">
<path id="Vector" d="M15.92 7.12L14.32 7.28C14.32 7.52 14.32 7.76 14.32 8C14.32 11.52 11.44 14.4 7.92 14.4C4.4 14.4 1.52 11.52 1.52 8C1.52 4.48 4.4 1.6 7.92 1.6C8.16 1.6 8.4 1.6 8.56 1.6L8.72 0C8.56 0 8.24 0 8 0C3.6 0 0 3.6 0 8C0 12.4 3.6 16 8 16C12.4 16 16 12.4 16 8C16 7.68 16 7.44 15.92 7.12Z" fill="#353748"/>
</g>
</g>
<g id="Group_3">
<g id="Group_4">
<path id="Vector_2" d="M8.8 7.2002V3.2002H7.2V8.8002H11.2V7.2002H8.8Z" fill="#353748"/>
</g>
</g>
<g id="Group_5">
<g id="Group_6">
<path id="Vector_3" d="M16 1.12L14.88 0L12 2.88V0.8H10.4V5.6H15.2V4H13.12L16 1.12Z" fill="#353748"/>
</g>
</g>
</g>
</svg>
