<svg width="56" height="46" viewBox="0 0 56 46" fill="none" xmlns="http://www.w3.org/2000/svg">
<g id="Group 34139">
<circle id="Ellipse 217" cx="33" cy="23" r="22.5" fill="white" stroke="#FF0000"/>
<g id="Group 34071">
<g id="Layer 13">
<path id="Vector" d="M41.19 14.0003H25.71C24.9921 14.0029 24.3043 14.2893 23.7967 14.7969C23.289 15.3046 23.0026 15.9924 23 16.7103V18.9503C23 19.0829 23.0527 19.2101 23.1464 19.3038C23.2402 19.3976 23.3674 19.4503 23.5 19.4503H25.21V32.1903C25.2047 32.5525 25.2717 32.9122 25.4073 33.2481C25.5429 33.5841 25.7442 33.8896 25.9994 34.1467C26.2546 34.4038 26.5587 34.6073 26.8936 34.7453C27.2286 34.8833 27.5877 34.953 27.95 34.9503H38.95C39.6679 34.9477 40.3557 34.6613 40.8633 34.1536C41.371 33.646 41.6574 32.9582 41.66 32.2403V19.4203H43.37C43.4396 19.4317 43.5108 19.4282 43.5789 19.4101C43.647 19.392 43.7106 19.3597 43.7653 19.3153C43.8201 19.2709 43.8649 19.2154 43.8967 19.1525C43.9285 19.0896 43.9467 19.0207 43.95 18.9503V16.7103C43.9487 16.3506 43.8761 15.9946 43.7363 15.6632C43.5965 15.3317 43.3924 15.0312 43.1357 14.7792C42.879 14.5271 42.5749 14.3285 42.2409 14.1948C41.9069 14.0611 41.5497 13.995 41.19 14.0003ZM40.69 32.1903C40.6954 32.4212 40.6542 32.6508 40.5689 32.8655C40.4837 33.0801 40.356 33.2754 40.1936 33.4397C40.0312 33.6039 39.8374 33.7338 39.6238 33.8215C39.4101 33.9092 39.181 33.953 38.95 33.9503H27.95C27.4973 33.9477 27.0639 33.7667 26.7437 33.4465C26.4236 33.1264 26.2426 32.693 26.24 32.2403V19.4203H40.69V32.1903ZM42.95 18.4203H24V16.7103C24.0026 16.2576 24.1836 15.8242 24.5037 15.504C24.8239 15.1839 25.2573 15.0029 25.71 15.0003H41.19C41.4184 14.995 41.6455 15.0352 41.8582 15.1186C42.0708 15.2021 42.2648 15.327 42.4286 15.4862C42.5924 15.6454 42.7229 15.8356 42.8125 16.0458C42.902 16.256 42.9487 16.4819 42.95 16.7103V18.4203Z" fill="#FF0000"/>
<path id="Vector_2" d="M30.13 30.4803C30.2626 30.4803 30.3898 30.4277 30.4836 30.3339C30.5774 30.2401 30.63 30.1129 30.63 29.9803V23.3403C30.63 23.2077 30.5774 23.0805 30.4836 22.9868C30.3898 22.893 30.2626 22.8403 30.13 22.8403C29.9982 22.8429 29.8725 22.8964 29.7793 22.9896C29.6861 23.0828 29.6326 23.2085 29.63 23.3403V29.9503C29.6274 30.0181 29.6382 30.0858 29.6621 30.1493C29.6859 30.2129 29.7221 30.271 29.7687 30.3204C29.8152 30.3698 29.8712 30.4093 29.9332 30.4368C29.9953 30.4642 30.0622 30.4791 30.13 30.4803Z" fill="#FF0000"/>
<path id="Vector_3" d="M36.7699 30.4803C36.9018 30.4778 37.0274 30.4243 37.1207 30.3311C37.2139 30.2378 37.2674 30.1121 37.2699 29.9803V23.3403C37.2674 23.2085 37.2139 23.0828 37.1207 22.9896C37.0274 22.8964 36.9018 22.8429 36.7699 22.8403C36.6373 22.8403 36.5102 22.893 36.4164 22.9868C36.3226 23.0805 36.2699 23.2077 36.2699 23.3403V29.9503C36.2658 30.0185 36.2757 30.0867 36.299 30.1509C36.3223 30.2151 36.3585 30.2738 36.4053 30.3234C36.4522 30.3731 36.5087 30.4126 36.5714 30.4396C36.6341 30.4666 36.7017 30.4805 36.7699 30.4803Z" fill="#FF0000"/>
</g>
</g>
</g>
</svg>
