<svg width="14" height="14" viewBox="0 0 14 14" fill="none" xmlns="http://www.w3.org/2000/svg">
<g id="Group">
<g id="Group_2">
<g id="ngicon">
<path id="Vector" fill-rule="evenodd" clip-rule="evenodd" d="M11.5303 1.25362L7.65458 5.12931C5.77936 3.6843 3.08654 3.81328 1.38274 5.51709C-0.46961 7.36944 -0.460457 10.3905 1.4077 12.2587C3.27627 14.1273 6.29694 14.1364 8.14929 12.2841C9.85351 10.5798 9.98208 7.88703 8.53707 6.01222L12.4065 2.14235L12.4169 4.54349C12.4186 4.888 12.6994 5.16635 13.0439 5.1651C13.3884 5.16344 13.6668 4.88259 13.6651 4.53808L13.6485 0.630348C13.6468 0.287506 13.3689 0.00956645 13.0256 0.00915038L9.12581 1.85816e-06C8.7813 -0.000830283 8.50087 0.277938 8.50004 0.622444C8.49921 0.96695 8.77839 1.24738 9.12289 1.24821L11.5303 1.25362ZM2.2906 11.3762C0.911331 9.99692 0.898015 7.7672 2.26522 6.39999C3.63285 5.03237 5.86257 5.04569 7.24184 6.42496C8.6207 7.80423 8.63401 10.034 7.2668 11.4012C5.8996 12.7688 3.66946 12.7555 2.2906 11.3762Z" fill="black"/>
</g>
</g>
</g>
</svg>
