<svg width="290" height="56" viewBox="0 0 290 56" fill="none" xmlns="http://www.w3.org/2000/svg">
<path d="M12.76 43L0.832 13.6H7.426L16.414 36.742L25.612 13.6H31.912L19.816 43H12.76ZM30.7898 43L42.8858 13.6H49.8998L61.8698 43H55.2758L52.2938 35.272H40.1558L37.1318 43H30.7898ZM42.0458 30.4H50.4458L46.2458 19.564L42.0458 30.4ZM81.4149 43.42C79.2309 43.42 77.1869 43.042 75.2829 42.286C73.3789 41.502 71.7129 40.424 70.2849 39.052C68.8849 37.68 67.7789 36.084 66.9669 34.264C66.1829 32.416 65.7909 30.428 65.7909 28.3C65.7909 26.144 66.1829 24.156 66.9669 22.336C67.7789 20.488 68.8989 18.878 70.3269 17.506C71.7549 16.134 73.4069 15.07 75.2829 14.314C77.1869 13.53 79.2309 13.138 81.4149 13.138C83.0389 13.138 84.6069 13.362 86.1189 13.81C87.6309 14.258 89.0309 14.888 90.3189 15.7C91.6349 16.512 92.7549 17.492 93.6789 18.64L89.5629 22.714C88.4989 21.398 87.2669 20.404 85.8669 19.732C84.4949 19.06 83.0109 18.724 81.4149 18.724C80.0989 18.724 78.8669 18.976 77.7189 19.48C76.5709 19.956 75.5769 20.628 74.7369 21.496C73.8969 22.336 73.2389 23.344 72.7629 24.52C72.2869 25.668 72.0489 26.928 72.0489 28.3C72.0489 29.644 72.2869 30.904 72.7629 32.08C73.2389 33.228 73.9109 34.236 74.7789 35.104C75.6469 35.944 76.6549 36.602 77.8029 37.078C78.9789 37.554 80.2529 37.792 81.6249 37.792C83.1649 37.792 84.6069 37.47 85.9509 36.826C87.2949 36.182 88.4849 35.258 89.5209 34.054L93.5109 38.002C92.5869 39.122 91.4809 40.088 90.1929 40.9C88.9049 41.712 87.5049 42.342 85.9929 42.79C84.5089 43.21 82.9829 43.42 81.4149 43.42ZM101.271 43V13.6H123.993V18.892H107.361V25.822H118.407V30.946H107.361V43H101.271Z" fill="#222222"/>
<path d="M152.592 24L148.016 12.8H149.824L153.616 22.336L157.472 12.8H159.2L154.56 24H152.592ZM160.163 24V15.856H161.763V24H160.163ZM160.963 14.544C160.696 14.544 160.467 14.448 160.275 14.256C160.083 14.0533 159.987 13.8187 159.987 13.552C159.987 13.2747 160.083 13.0453 160.275 12.864C160.467 12.672 160.696 12.576 160.963 12.576C161.24 12.576 161.475 12.672 161.667 12.864C161.859 13.0453 161.955 13.2747 161.955 13.552C161.955 13.8187 161.859 14.0533 161.667 14.256C161.475 14.448 161.24 14.544 160.963 14.544ZM167.391 24.128C166.634 24.128 165.94 23.9413 165.311 23.568C164.682 23.1947 164.186 22.6933 163.823 22.064C163.46 21.424 163.279 20.7093 163.279 19.92C163.279 19.1307 163.46 18.4213 163.823 17.792C164.196 17.1627 164.698 16.6613 165.327 16.288C165.956 15.9147 166.655 15.728 167.423 15.728C167.871 15.728 168.303 15.7973 168.719 15.936C169.135 16.0747 169.519 16.2773 169.871 16.544V12.8L171.471 12.496V24H169.887V23.216C169.194 23.824 168.362 24.128 167.391 24.128ZM167.599 22.736C168.068 22.736 168.495 22.6507 168.879 22.48C169.274 22.3093 169.604 22.064 169.871 21.744V18.08C169.604 17.7813 169.274 17.5467 168.879 17.376C168.495 17.1947 168.068 17.104 167.599 17.104C167.087 17.104 166.623 17.2267 166.207 17.472C165.791 17.7173 165.46 18.0533 165.215 18.48C164.97 18.896 164.847 19.3707 164.847 19.904C164.847 20.4373 164.97 20.9173 165.215 21.344C165.46 21.7707 165.791 22.112 166.207 22.368C166.623 22.6133 167.087 22.736 167.599 22.736ZM177.27 24.144C176.47 24.144 175.745 23.9573 175.094 23.584C174.454 23.2107 173.942 22.704 173.558 22.064C173.185 21.424 172.998 20.7093 172.998 19.92C172.998 19.1413 173.179 18.4373 173.542 17.808C173.905 17.168 174.395 16.6613 175.014 16.288C175.633 15.904 176.321 15.712 177.078 15.712C177.835 15.712 178.507 15.904 179.094 16.288C179.681 16.6613 180.145 17.1733 180.486 17.824C180.838 18.464 181.014 19.1893 181.014 20V20.448H174.598C174.683 20.896 174.849 21.296 175.094 21.648C175.35 22 175.67 22.2773 176.054 22.48C176.449 22.6827 176.875 22.784 177.334 22.784C177.729 22.784 178.107 22.7253 178.47 22.608C178.843 22.48 179.153 22.2987 179.398 22.064L180.422 23.072C179.942 23.4347 179.446 23.7067 178.934 23.888C178.433 24.0587 177.878 24.144 177.27 24.144ZM174.614 19.248H179.43C179.366 18.8213 179.217 18.448 178.982 18.128C178.758 17.7973 178.475 17.5413 178.134 17.36C177.803 17.168 177.441 17.072 177.046 17.072C176.641 17.072 176.267 17.1627 175.926 17.344C175.585 17.5253 175.297 17.7813 175.062 18.112C174.838 18.432 174.689 18.8107 174.614 19.248ZM186.441 24.16C185.652 24.16 184.932 23.9733 184.281 23.6C183.641 23.2267 183.134 22.72 182.761 22.08C182.388 21.44 182.201 20.7253 182.201 19.936C182.201 19.1467 182.388 18.432 182.761 17.792C183.134 17.152 183.641 16.6453 184.281 16.272C184.932 15.888 185.652 15.696 186.441 15.696C187.241 15.696 187.961 15.888 188.601 16.272C189.241 16.6453 189.748 17.152 190.121 17.792C190.494 18.432 190.681 19.1467 190.681 19.936C190.681 20.7253 190.494 21.44 190.121 22.08C189.748 22.72 189.241 23.2267 188.601 23.6C187.961 23.9733 187.241 24.16 186.441 24.16ZM186.441 22.752C186.942 22.752 187.396 22.6293 187.801 22.384C188.206 22.128 188.526 21.7867 188.761 21.36C188.996 20.9333 189.113 20.4533 189.113 19.92C189.113 19.3973 188.99 18.928 188.745 18.512C188.51 18.0853 188.19 17.744 187.785 17.488C187.39 17.232 186.942 17.104 186.441 17.104C185.94 17.104 185.486 17.232 185.081 17.488C184.686 17.744 184.366 18.0853 184.121 18.512C183.886 18.928 183.769 19.3973 183.769 19.92C183.769 20.4533 183.886 20.9333 184.121 21.36C184.356 21.7867 184.676 22.128 185.081 22.384C185.486 22.6293 185.94 22.752 186.441 22.752ZM194.61 24L199.234 12.8H201.218L205.794 24H203.97L202.674 20.72H197.666L196.354 24H194.61ZM198.21 19.328H202.13L200.178 14.4L198.21 19.328ZM206.757 24V15.856H208.357V16.688C208.986 16.0267 209.802 15.696 210.805 15.696C211.434 15.696 211.983 15.8293 212.453 16.096C212.933 16.3627 213.306 16.736 213.573 17.216C213.85 17.696 213.989 18.2507 213.989 18.88V24H212.389V19.152C212.389 18.512 212.207 18.0107 211.845 17.648C211.493 17.2747 210.997 17.088 210.357 17.088C209.93 17.088 209.546 17.1787 209.205 17.36C208.863 17.5413 208.581 17.8027 208.357 18.144V24H206.757ZM218.411 24.144C217.824 24.144 217.307 24.0427 216.859 23.84C216.411 23.6267 216.059 23.3333 215.803 22.96C215.547 22.5867 215.419 22.1547 215.419 21.664C215.419 20.896 215.712 20.2933 216.299 19.856C216.885 19.408 217.691 19.184 218.715 19.184C219.515 19.184 220.256 19.3387 220.939 19.648V18.784C220.939 18.1973 220.768 17.76 220.427 17.472C220.096 17.184 219.605 17.04 218.955 17.04C218.581 17.04 218.192 17.0987 217.787 17.216C217.381 17.3227 216.928 17.4933 216.427 17.728L215.835 16.528C216.453 16.24 217.029 16.032 217.563 15.904C218.096 15.7653 218.635 15.696 219.179 15.696C220.235 15.696 221.051 15.9467 221.627 16.448C222.213 16.9493 222.507 17.664 222.507 18.592V24H220.939V23.296C220.576 23.584 220.187 23.7973 219.771 23.936C219.355 24.0747 218.901 24.144 218.411 24.144ZM216.955 21.632C216.955 22.0267 217.12 22.3467 217.451 22.592C217.792 22.8267 218.235 22.944 218.779 22.944C219.205 22.944 219.595 22.8853 219.947 22.768C220.309 22.64 220.64 22.4427 220.939 22.176V20.8C220.629 20.6187 220.304 20.4907 219.963 20.416C219.632 20.3307 219.259 20.288 218.843 20.288C218.256 20.288 217.792 20.4107 217.451 20.656C217.12 20.8907 216.955 21.216 216.955 21.632ZM224.35 24V12.8L225.95 12.496V24H224.35ZM228.379 27.44C228.208 27.44 228.048 27.4293 227.899 27.408C227.749 27.3973 227.627 27.376 227.531 27.344V25.936C227.723 25.9787 227.957 26 228.235 26C228.981 26 229.52 25.6 229.851 24.8L230.203 24.016L226.939 15.856H228.715L231.083 22.064L233.707 15.856H235.435L231.499 25.008C231.243 25.584 230.971 26.048 230.683 26.4C230.395 26.7627 230.064 27.024 229.691 27.184C229.317 27.3547 228.88 27.44 228.379 27.44ZM240.151 24.144C239.361 24.144 238.759 23.9627 238.343 23.6C237.927 23.2267 237.719 22.688 237.719 21.984V17.2H235.991V15.856H237.719V13.776L239.303 13.392V15.856H241.703V17.2H239.303V21.616C239.303 22.032 239.393 22.3307 239.575 22.512C239.767 22.6827 240.076 22.768 240.503 22.768C240.727 22.768 240.924 22.752 241.095 22.72C241.276 22.688 241.468 22.64 241.671 22.576V23.92C241.457 23.9947 241.207 24.048 240.919 24.08C240.641 24.1227 240.385 24.144 240.151 24.144ZM242.882 24V15.856H244.482V24H242.882ZM243.682 14.544C243.415 14.544 243.186 14.448 242.993 14.256C242.802 14.0533 242.706 13.8187 242.706 13.552C242.706 13.2747 242.802 13.0453 242.993 12.864C243.186 12.672 243.415 12.576 243.682 12.576C243.959 12.576 244.194 12.672 244.386 12.864C244.578 13.0453 244.674 13.2747 244.674 13.552C244.674 13.8187 244.578 14.0533 244.386 14.256C244.194 14.448 243.959 14.544 243.682 14.544ZM250.19 24.144C249.411 24.144 248.702 23.9573 248.062 23.584C247.422 23.2107 246.915 22.704 246.542 22.064C246.179 21.424 245.998 20.7093 245.998 19.92C245.998 19.1307 246.185 18.4213 246.558 17.792C246.931 17.152 247.433 16.6453 248.062 16.272C248.702 15.888 249.411 15.696 250.19 15.696C250.809 15.696 251.401 15.8133 251.966 16.048C252.542 16.2827 253.038 16.6133 253.454 17.04L252.462 18.144C252.153 17.8027 251.806 17.5467 251.422 17.376C251.038 17.2053 250.638 17.12 250.222 17.12C249.731 17.12 249.283 17.2427 248.878 17.488C248.483 17.7333 248.169 18.0693 247.934 18.496C247.699 18.9227 247.582 19.3973 247.582 19.92C247.582 20.4427 247.699 20.9173 247.934 21.344C248.169 21.7707 248.489 22.112 248.894 22.368C249.299 22.6133 249.753 22.736 250.254 22.736C250.67 22.736 251.059 22.656 251.422 22.496C251.785 22.3253 252.126 22.08 252.446 21.76L253.422 22.784C252.995 23.2213 252.499 23.5573 251.934 23.792C251.379 24.0267 250.798 24.144 250.19 24.144ZM257.588 24.16C256.884 24.16 256.222 24.0587 255.604 23.856C254.996 23.6427 254.468 23.344 254.02 22.96L254.9 21.904C255.316 22.2347 255.742 22.4907 256.18 22.672C256.628 22.8427 257.081 22.928 257.54 22.928C258.116 22.928 258.585 22.816 258.948 22.592C259.31 22.368 259.492 22.0747 259.492 21.712C259.492 21.4133 259.385 21.1787 259.172 21.008C258.958 20.8373 258.628 20.72 258.18 20.656L256.708 20.448C255.897 20.3307 255.289 20.08 254.884 19.696C254.478 19.312 254.276 18.8 254.276 18.16C254.276 17.6693 254.409 17.2427 254.676 16.88C254.942 16.5067 255.316 16.2187 255.796 16.016C256.276 15.8027 256.836 15.696 257.476 15.696C258.062 15.696 258.628 15.7813 259.172 15.952C259.716 16.1227 260.238 16.3893 260.74 16.752L259.924 17.808C259.476 17.5093 259.038 17.2907 258.612 17.152C258.196 17.0133 257.774 16.944 257.348 16.944C256.857 16.944 256.462 17.0507 256.164 17.264C255.865 17.4667 255.716 17.7333 255.716 18.064C255.716 18.3627 255.817 18.5973 256.02 18.768C256.233 18.928 256.58 19.04 257.06 19.104L258.532 19.312C259.342 19.4293 259.956 19.68 260.372 20.064C260.788 20.4373 260.996 20.944 260.996 21.584C260.996 22.0747 260.846 22.5173 260.548 22.912C260.249 23.296 259.844 23.6 259.332 23.824C258.82 24.048 258.238 24.16 257.588 24.16ZM269.441 24.16C268.652 24.16 267.932 23.9733 267.281 23.6C266.641 23.2267 266.134 22.72 265.761 22.08C265.388 21.44 265.201 20.7253 265.201 19.936C265.201 19.1467 265.388 18.432 265.761 17.792C266.134 17.152 266.641 16.6453 267.281 16.272C267.932 15.888 268.652 15.696 269.441 15.696C270.241 15.696 270.961 15.888 271.601 16.272C272.241 16.6453 272.748 17.152 273.121 17.792C273.494 18.432 273.681 19.1467 273.681 19.936C273.681 20.7253 273.494 21.44 273.121 22.08C272.748 22.72 272.241 23.2267 271.601 23.6C270.961 23.9733 270.241 24.16 269.441 24.16ZM269.441 22.752C269.942 22.752 270.396 22.6293 270.801 22.384C271.206 22.128 271.526 21.7867 271.761 21.36C271.996 20.9333 272.113 20.4533 272.113 19.92C272.113 19.3973 271.99 18.928 271.745 18.512C271.51 18.0853 271.19 17.744 270.785 17.488C270.39 17.232 269.942 17.104 269.441 17.104C268.94 17.104 268.486 17.232 268.081 17.488C267.686 17.744 267.366 18.0853 267.121 18.512C266.886 18.928 266.769 19.3973 266.769 19.92C266.769 20.4533 266.886 20.9333 267.121 21.36C267.356 21.7867 267.676 22.128 268.081 22.384C268.486 22.6293 268.94 22.752 269.441 22.752ZM275.194 24V15.856H276.794V16.688C277.423 16.0267 278.239 15.696 279.242 15.696C279.871 15.696 280.421 15.8293 280.89 16.096C281.37 16.3627 281.743 16.736 282.01 17.216C282.287 17.696 282.426 18.2507 282.426 18.88V24H280.826V19.152C280.826 18.512 280.645 18.0107 280.282 17.648C279.93 17.2747 279.434 17.088 278.794 17.088C278.367 17.088 277.983 17.1787 277.642 17.36C277.301 17.5413 277.018 17.8027 276.794 18.144V24H275.194ZM154.528 44.176C153.696 44.176 152.923 44.032 152.208 43.744C151.504 43.4453 150.88 43.0347 150.336 42.512C149.803 41.9787 149.387 41.3653 149.088 40.672C148.8 39.968 148.656 39.2107 148.656 38.4C148.656 37.5893 148.8 36.8373 149.088 36.144C149.387 35.44 149.803 34.8267 150.336 34.304C150.88 33.7707 151.509 33.36 152.224 33.072C152.939 32.7733 153.707 32.624 154.528 32.624C155.115 32.624 155.685 32.704 156.24 32.864C156.805 33.0133 157.323 33.232 157.792 33.52C158.272 33.808 158.688 34.1547 159.04 34.56L157.92 35.712C157.504 35.2107 156.997 34.832 156.4 34.576C155.803 34.3093 155.179 34.176 154.528 34.176C153.931 34.176 153.376 34.2827 152.864 34.496C152.363 34.7093 151.925 35.008 151.552 35.392C151.179 35.7653 150.885 36.208 150.672 36.72C150.469 37.232 150.368 37.792 150.368 38.4C150.368 38.9973 150.469 39.552 150.672 40.064C150.885 40.576 151.184 41.024 151.568 41.408C151.952 41.792 152.4 42.0907 152.912 42.304C153.424 42.5173 153.979 42.624 154.576 42.624C155.227 42.624 155.84 42.496 156.416 42.24C157.003 41.9733 157.499 41.6 157.904 41.12L159.008 42.24C158.635 42.6347 158.208 42.9813 157.728 43.28C157.259 43.568 156.747 43.792 156.192 43.952C155.648 44.1013 155.093 44.176 154.528 44.176ZM165.809 44.176C164.977 44.176 164.204 44.032 163.489 43.744C162.785 43.4453 162.161 43.0347 161.617 42.512C161.084 41.9787 160.668 41.3653 160.369 40.672C160.081 39.968 159.937 39.2107 159.937 38.4C159.937 37.5893 160.081 36.8373 160.369 36.144C160.668 35.44 161.084 34.8267 161.617 34.304C162.161 33.7707 162.791 33.36 163.505 33.072C164.22 32.7733 164.988 32.624 165.809 32.624C166.396 32.624 166.967 32.704 167.521 32.864C168.087 33.0133 168.604 33.232 169.073 33.52C169.553 33.808 169.969 34.1547 170.321 34.56L169.201 35.712C168.785 35.2107 168.279 34.832 167.681 34.576C167.084 34.3093 166.46 34.176 165.809 34.176C165.212 34.176 164.657 34.2827 164.145 34.496C163.644 34.7093 163.207 35.008 162.833 35.392C162.46 35.7653 162.167 36.208 161.953 36.72C161.751 37.232 161.649 37.792 161.649 38.4C161.649 38.9973 161.751 39.552 161.953 40.064C162.167 40.576 162.465 41.024 162.849 41.408C163.233 41.792 163.681 42.0907 164.193 42.304C164.705 42.5173 165.26 42.624 165.857 42.624C166.508 42.624 167.121 42.496 167.697 42.24C168.284 41.9733 168.78 41.6 169.185 41.12L170.289 42.24C169.916 42.6347 169.489 42.9813 169.009 43.28C168.54 43.568 168.028 43.792 167.473 43.952C166.929 44.1013 166.375 44.176 165.809 44.176ZM175.161 44V34.288H171.225V32.8H180.777V34.288H176.841V44H175.161ZM185.873 44L181.297 32.8H183.105L186.897 42.336L190.753 32.8H192.481L187.841 44H185.873ZM200.436 44L195.86 32.8H197.668L201.46 42.336L205.316 32.8H207.044L202.404 44H200.436ZM208.007 44V35.856H209.607V44H208.007ZM208.807 34.544C208.54 34.544 208.311 34.448 208.118 34.256C207.927 34.0533 207.831 33.8187 207.831 33.552C207.831 33.2747 207.927 33.0453 208.118 32.864C208.311 32.672 208.54 32.576 208.807 32.576C209.084 32.576 209.319 32.672 209.511 32.864C209.703 33.0453 209.799 33.2747 209.799 33.552C209.799 33.8187 209.703 34.0533 209.511 34.256C209.319 34.448 209.084 34.544 208.807 34.544ZM215.235 44.128C214.478 44.128 213.784 43.9413 213.155 43.568C212.526 43.1947 212.03 42.6933 211.667 42.064C211.304 41.424 211.123 40.7093 211.123 39.92C211.123 39.1307 211.304 38.4213 211.667 37.792C212.04 37.1627 212.542 36.6613 213.171 36.288C213.8 35.9147 214.499 35.728 215.267 35.728C215.715 35.728 216.147 35.7973 216.563 35.936C216.979 36.0747 217.363 36.2773 217.715 36.544V32.8L219.315 32.496V44H217.731V43.216C217.038 43.824 216.206 44.128 215.235 44.128ZM215.443 42.736C215.912 42.736 216.339 42.6507 216.723 42.48C217.118 42.3093 217.448 42.064 217.715 41.744V38.08C217.448 37.7813 217.118 37.5467 216.723 37.376C216.339 37.1947 215.912 37.104 215.443 37.104C214.931 37.104 214.467 37.2267 214.051 37.472C213.635 37.7173 213.304 38.0533 213.059 38.48C212.814 38.896 212.691 39.3707 212.691 39.904C212.691 40.4373 212.814 40.9173 213.059 41.344C213.304 41.7707 213.635 42.112 214.051 42.368C214.467 42.6133 214.931 42.736 215.443 42.736ZM225.114 44.144C224.314 44.144 223.588 43.9573 222.938 43.584C222.298 43.2107 221.786 42.704 221.402 42.064C221.028 41.424 220.842 40.7093 220.842 39.92C220.842 39.1413 221.023 38.4373 221.386 37.808C221.748 37.168 222.239 36.6613 222.858 36.288C223.476 35.904 224.164 35.712 224.922 35.712C225.679 35.712 226.351 35.904 226.938 36.288C227.524 36.6613 227.988 37.1733 228.33 37.824C228.682 38.464 228.858 39.1893 228.858 40V40.448H222.442C222.527 40.896 222.692 41.296 222.938 41.648C223.194 42 223.514 42.2773 223.898 42.48C224.292 42.6827 224.719 42.784 225.178 42.784C225.572 42.784 225.951 42.7253 226.314 42.608C226.687 42.48 226.996 42.2987 227.242 42.064L228.266 43.072C227.786 43.4347 227.29 43.7067 226.778 43.888C226.276 44.0587 225.722 44.144 225.114 44.144ZM222.458 39.248H227.274C227.21 38.8213 227.06 38.448 226.826 38.128C226.602 37.7973 226.319 37.5413 225.978 37.36C225.647 37.168 225.284 37.072 224.89 37.072C224.484 37.072 224.111 37.1627 223.77 37.344C223.428 37.5253 223.14 37.7813 222.906 38.112C222.682 38.432 222.532 38.8107 222.458 39.248ZM234.285 44.16C233.495 44.16 232.775 43.9733 232.125 43.6C231.485 43.2267 230.978 42.72 230.605 42.08C230.231 41.44 230.045 40.7253 230.045 39.936C230.045 39.1467 230.231 38.432 230.605 37.792C230.978 37.152 231.485 36.6453 232.125 36.272C232.775 35.888 233.495 35.696 234.285 35.696C235.085 35.696 235.805 35.888 236.445 36.272C237.085 36.6453 237.591 37.152 237.965 37.792C238.338 38.432 238.525 39.1467 238.525 39.936C238.525 40.7253 238.338 41.44 237.965 42.08C237.591 42.72 237.085 43.2267 236.445 43.6C235.805 43.9733 235.085 44.16 234.285 44.16ZM234.285 42.752C234.786 42.752 235.239 42.6293 235.645 42.384C236.05 42.128 236.37 41.7867 236.605 41.36C236.839 40.9333 236.957 40.4533 236.957 39.92C236.957 39.3973 236.834 38.928 236.589 38.512C236.354 38.0853 236.034 37.744 235.629 37.488C235.234 37.232 234.786 37.104 234.285 37.104C233.783 37.104 233.33 37.232 232.925 37.488C232.53 37.744 232.21 38.0853 231.965 38.512C231.73 38.928 231.613 39.3973 231.613 39.92C231.613 40.4533 231.73 40.9333 231.965 41.36C232.199 41.7867 232.519 42.128 232.925 42.384C233.33 42.6293 233.783 42.752 234.285 42.752ZM243.574 44V32.8H251.862V34.272H245.254V37.712H249.606V39.136H245.254V44H243.574ZM255.551 44.144C254.751 44.144 254.026 43.9573 253.375 43.584C252.735 43.2107 252.223 42.704 251.839 42.064C251.466 41.424 251.279 40.7093 251.279 39.92C251.279 39.1413 251.46 38.4373 251.823 37.808C252.186 37.168 252.676 36.6613 253.295 36.288C253.914 35.904 254.602 35.712 255.359 35.712C256.116 35.712 256.788 35.904 257.375 36.288C257.962 36.6613 258.426 37.1733 258.767 37.824C259.119 38.464 259.295 39.1893 259.295 40V40.448H252.879C252.964 40.896 253.13 41.296 253.375 41.648C253.631 42 253.951 42.2773 254.335 42.48C254.73 42.6827 255.156 42.784 255.615 42.784C256.01 42.784 256.388 42.7253 256.751 42.608C257.124 42.48 257.434 42.2987 257.679 42.064L258.703 43.072C258.223 43.4347 257.727 43.7067 257.215 43.888C256.714 44.0587 256.159 44.144 255.551 44.144ZM252.895 39.248H257.711C257.647 38.8213 257.498 38.448 257.263 38.128C257.039 37.7973 256.756 37.5413 256.415 37.36C256.084 37.168 255.722 37.072 255.327 37.072C254.922 37.072 254.548 37.1627 254.207 37.344C253.866 37.5253 253.578 37.7813 253.343 38.112C253.119 38.432 252.97 38.8107 252.895 39.248ZM264.754 44.144C263.954 44.144 263.229 43.9573 262.578 43.584C261.938 43.2107 261.426 42.704 261.042 42.064C260.669 41.424 260.482 40.7093 260.482 39.92C260.482 39.1413 260.664 38.4373 261.026 37.808C261.389 37.168 261.88 36.6613 262.498 36.288C263.117 35.904 263.805 35.712 264.562 35.712C265.32 35.712 265.992 35.904 266.578 36.288C267.165 36.6613 267.629 37.1733 267.97 37.824C268.322 38.464 268.498 39.1893 268.498 40V40.448H262.082C262.168 40.896 262.333 41.296 262.578 41.648C262.834 42 263.154 42.2773 263.538 42.48C263.933 42.6827 264.36 42.784 264.818 42.784C265.213 42.784 265.592 42.7253 265.954 42.608C266.328 42.48 266.637 42.2987 266.882 42.064L267.906 43.072C267.426 43.4347 266.93 43.7067 266.418 43.888C265.917 44.0587 265.362 44.144 264.754 44.144ZM262.098 39.248H266.914C266.85 38.8213 266.701 38.448 266.466 38.128C266.242 37.7973 265.96 37.5413 265.618 37.36C265.288 37.168 264.925 37.072 264.53 37.072C264.125 37.072 263.752 37.1627 263.41 37.344C263.069 37.5253 262.781 37.7813 262.546 38.112C262.322 38.432 262.173 38.8107 262.098 39.248ZM273.797 44.128C273.04 44.128 272.347 43.9413 271.717 43.568C271.088 43.1947 270.592 42.6933 270.229 42.064C269.867 41.424 269.685 40.7093 269.685 39.92C269.685 39.1307 269.867 38.4213 270.229 37.792C270.603 37.1627 271.104 36.6613 271.733 36.288C272.363 35.9147 273.061 35.728 273.829 35.728C274.277 35.728 274.709 35.7973 275.125 35.936C275.541 36.0747 275.925 36.2773 276.277 36.544V32.8L277.877 32.496V44H276.293V43.216C275.6 43.824 274.768 44.128 273.797 44.128ZM274.005 42.736C274.475 42.736 274.901 42.6507 275.285 42.48C275.68 42.3093 276.011 42.064 276.277 41.744V38.08C276.011 37.7813 275.68 37.5467 275.285 37.376C274.901 37.1947 274.475 37.104 274.005 37.104C273.493 37.104 273.029 37.2267 272.613 37.472C272.197 37.7173 271.867 38.0533 271.621 38.48C271.376 38.896 271.253 39.3707 271.253 39.904C271.253 40.4373 271.376 40.9173 271.621 41.344C271.867 41.7707 272.197 42.112 272.613 42.368C273.029 42.6133 273.493 42.736 274.005 42.736ZM282.572 44.16C281.868 44.16 281.207 44.0587 280.588 43.856C279.98 43.6427 279.452 43.344 279.004 42.96L279.884 41.904C280.3 42.2347 280.727 42.4907 281.164 42.672C281.612 42.8427 282.065 42.928 282.524 42.928C283.1 42.928 283.569 42.816 283.932 42.592C284.295 42.368 284.476 42.0747 284.476 41.712C284.476 41.4133 284.369 41.1787 284.156 41.008C283.943 40.8373 283.612 40.72 283.164 40.656L281.692 40.448C280.881 40.3307 280.273 40.08 279.868 39.696C279.463 39.312 279.26 38.8 279.26 38.16C279.26 37.6693 279.393 37.2427 279.66 36.88C279.927 36.5067 280.3 36.2187 280.78 36.016C281.26 35.8027 281.82 35.696 282.46 35.696C283.047 35.696 283.612 35.7813 284.156 35.952C284.7 36.1227 285.223 36.3893 285.724 36.752L284.908 37.808C284.46 37.5093 284.023 37.2907 283.596 37.152C283.18 37.0133 282.759 36.944 282.332 36.944C281.841 36.944 281.447 37.0507 281.148 37.264C280.849 37.4667 280.7 37.7333 280.7 38.064C280.7 38.3627 280.801 38.5973 281.004 38.768C281.217 38.928 281.564 39.04 282.044 39.104L283.516 39.312C284.327 39.4293 284.94 39.68 285.356 40.064C285.772 40.4373 285.98 40.944 285.98 41.584C285.98 42.0747 285.831 42.5173 285.532 42.912C285.233 43.296 284.828 43.6 284.316 43.824C283.804 44.048 283.223 44.16 282.572 44.16Z" fill="#7B7B7B"/>
<path d="M136.5 9V48" stroke="#A19696"/>
</svg>
