<svg width="10" height="13" viewBox="0 0 10 13" fill="none" xmlns="http://www.w3.org/2000/svg">
<g id="Group 34128">
<g id="Group">
<g id="Group_2">
<path id="Vector" d="M5 2.68286C3.72238 2.68286 2.68294 3.7223 2.68294 4.99993C2.68294 6.27755 3.72238 7.31699 5 7.31699C6.27763 7.31699 7.31707 6.27755 7.31707 4.99993C7.31707 3.7223 6.27765 2.68286 5 2.68286ZM5 6.34139C4.26032 6.34139 3.65854 5.73961 3.65854 4.99993C3.65854 4.26025 4.26032 3.65846 5 3.65846C5.73969 3.65846 6.34147 4.26025 6.34147 4.99993C6.34147 5.73961 5.73969 6.34139 5 6.34139Z" fill="black"/>
</g>
</g>
<g id="Group_3">
<g id="Group_4">
<path id="Vector_2" d="M5 0C2.24299 0 0 2.24301 0 5V5.13822C0 6.53256 0.799405 8.1574 2.37608 9.96753C3.51905 11.2798 4.64605 12.1948 4.69344 12.2331L5 12.4808L5.30656 12.2331C5.35397 12.1948 6.48097 11.2798 7.62392 9.96756C9.20057 8.1574 10 6.53258 10 5.13824V5.00002C10 2.24301 7.75702 0 5 0ZM9.0244 5.13824C9.0244 7.4946 5.98828 10.347 5 11.2129C4.01146 10.3468 0.975599 7.49443 0.975599 5.13824V5.00002C0.975599 2.78098 2.78095 0.975623 5 0.975623C7.21905 0.975623 9.0244 2.78098 9.0244 5.00002V5.13824Z" fill="black"/>
</g>
</g>
</g>
</svg>
