<svg width="57" height="57" viewBox="0 0 57 57" fill="none" xmlns="http://www.w3.org/2000/svg">
<g id="Group 34065">
<rect id="Rectangle 318" x="1.17334" y="1.17334" width="55.3265" height="55.3265" rx="4.5" fill="white" stroke="#A0A0A0"/>
<g id="Group 34057">
<path id="Vector" d="M33.8185 23.9937H31.2126L27.3037 23.9937V26.5996H31.2126L31.3294 26.5997H33.9354L33.8185 26.5996H37.7274V23.9937L33.8185 23.9937Z" fill="#263F43"/>
<path id="Vector_2" d="M32.5154 12.9185C25.6898 12.9185 20.1372 18.471 20.1372 25.2966C20.1372 28.2407 21.1742 30.9449 22.8974 33.0721L13.7344 42.2351L15.5768 44.0776L24.7399 34.9145C26.8671 36.6377 29.5713 37.6747 32.5154 37.6747C39.341 37.6747 44.8935 32.1222 44.8935 25.2966C44.8935 18.471 39.341 12.9185 32.5154 12.9185ZM32.5154 35.0688C29.9314 35.0688 27.5847 34.0537 25.8358 32.4101L25.4019 31.9762C23.7582 30.2269 22.7431 27.8803 22.7431 25.2966C22.7431 19.9082 27.127 15.5244 32.5154 15.5244C37.9038 15.5244 42.2876 19.9082 42.2876 25.2966C42.2876 30.685 37.9038 35.0688 32.5154 35.0688Z" fill="#263F43"/>
</g>
</g>
</svg>
