<svg width="57" height="57" viewBox="0 0 57 57" fill="none" xmlns="http://www.w3.org/2000/svg">
<g id="Group 34064">
<rect id="Rectangle 318" x="1.17334" y="0.5" width="55.3265" height="55.3265" rx="4.5" fill="white" stroke="#A0A0A0"/>
<g id="Group 34057">
<path id="Vector" d="M33.8185 19.4116H31.2126V23.3205H27.3037V25.9264H31.2126V29.8353H33.8185V25.9264H37.7274V23.3205H33.8185V19.4116Z" fill="#263F43"/>
<path id="Vector_2" d="M32.5154 12.2451C25.6898 12.2451 20.1372 17.7977 20.1372 24.6233C20.1372 27.5673 21.1742 30.2715 22.8974 32.3987L13.7344 41.5618L15.5768 43.4042L24.7399 34.2412C26.8671 35.9644 29.5713 37.0014 32.5154 37.0014C39.341 37.0014 44.8935 31.4489 44.8935 24.6233C44.8935 17.7977 39.341 12.2451 32.5154 12.2451ZM32.5154 34.3955C29.9314 34.3955 27.5847 33.3804 25.8358 31.7367L25.4019 31.3028C23.7582 29.5536 22.7431 27.2069 22.7431 24.6233C22.7431 19.2349 27.127 14.851 32.5154 14.851C37.9038 14.851 42.2876 19.2349 42.2876 24.6233C42.2876 30.0117 37.9038 34.3955 32.5154 34.3955Z" fill="#263F43"/>
</g>
</g>
</svg>
