<svg width="96" height="85" viewBox="0 0 96 85" fill="none" xmlns="http://www.w3.org/2000/svg">
<g id="Group 33994">
<g id="Group">
<g id="Group_2">
<g id="Group_3">
<path id="Vector" d="M36.1832 34.1679C39.8257 34.1679 42.7786 31.215 42.7786 27.5725C42.7786 23.9299 39.8257 20.9771 36.1832 20.9771C32.5406 20.9771 29.5878 23.9299 29.5878 27.5725C29.5878 31.215 32.5406 34.1679 36.1832 34.1679Z" fill="#263F43"/>
<path id="Vector_2" d="M90.3206 51.8473C87.2061 48.916 83.2672 46.9924 78.9618 46.4427V12.916C78.9618 9.34351 77.4962 6.1374 75.2061 3.75573C72.8244 1.37405 69.6183 0 66.0458 0H12.916C9.34351 0 6.1374 1.46565 3.75573 3.75573C1.37405 6.1374 0 9.34351 0 12.916V55.145V59.084V67.6031C0 71.1756 1.46565 74.3817 3.75573 76.7634C6.1374 79.145 9.34351 80.5191 12.916 80.5191H64.3053C67.6947 83.2672 71.9084 85.0076 76.5801 85.0076C81.9847 85.0076 86.8397 82.8092 90.3206 79.3282C93.8015 75.8473 96 70.9924 96 65.5878C96 60.1832 93.8015 55.3282 90.3206 51.8473ZM4.85496 12.916C4.85496 10.7176 5.77099 8.70229 7.23664 7.32824C8.70229 5.8626 10.7176 4.94656 12.916 4.94656H66.0458C68.2443 4.94656 70.2595 5.8626 71.7252 7.32824C73.1908 8.79389 74.1069 10.8092 74.1069 13.0076V41.5878L60.5496 28.0305C59.6336 27.1145 58.0763 27.0229 57.0687 28.0305L36.6412 48.5496L22.8092 34.626C21.8931 33.7099 20.3359 33.6183 19.3282 34.626L4.85496 49.2824V12.916ZM12.8244 75.8473V75.6641C10.626 75.6641 8.61069 74.7481 7.14504 73.2824C5.77099 71.8168 4.85496 69.8015 4.85496 67.6031V59.084V56.2443L21.0687 39.9389L34.9008 53.771C35.8168 54.687 37.374 54.687 38.3817 53.771L58.8092 33.2519L72.1832 46.7176C71.9084 46.8092 71.6336 46.9008 71.3588 46.9924C70.9924 47.084 70.626 47.1756 70.1679 47.3588C69.8015 47.4504 69.4351 47.6336 69.0687 47.7252C68.7939 47.8168 68.6107 47.9084 68.3359 48.0916C67.9695 48.2748 67.6947 48.3664 67.4198 48.5496C66.9618 48.8244 66.5038 49.0992 66.0458 49.374C65.771 49.5573 65.5878 49.6489 65.313 49.8321C65.1298 49.9237 65.0382 50.0153 64.855 50.1069C64.0305 50.6565 63.2977 51.2977 62.6565 52.0305C59.1756 55.5114 56.9771 60.3664 56.9771 65.771C56.9771 67.145 57.1603 68.4275 57.4351 69.8015C57.5267 70.1679 57.6183 70.4428 57.7099 70.8092C57.9847 71.7252 58.2595 72.6412 58.626 73.5573V73.6489C58.9924 74.3817 59.3588 75.2061 59.8168 75.8473H12.8244ZM86.7481 75.8473C84.0916 78.5038 80.5191 80.0611 76.4885 80.0611C72.6412 80.0611 69.0687 78.5038 66.5038 76.0305C66.1374 75.6641 65.771 75.2061 65.4046 74.8397C65.1298 74.5649 64.855 74.1985 64.5802 73.9237C64.2137 73.4656 63.9389 72.916 63.6641 72.3664C63.4809 72 63.2977 71.7252 63.1145 71.3588C62.9313 70.9008 62.7481 70.3511 62.6565 69.8015C62.5649 69.4351 62.3817 68.9771 62.2901 68.6107C62.1069 67.6947 62.0153 66.687 62.0153 65.6794C62.0153 61.6488 63.6641 58.0763 66.229 55.4198C68.7939 52.7634 72.458 51.2061 76.4885 51.2061C80.5191 51.2061 84.0916 52.855 86.7481 55.4198C89.4046 58.0763 90.9618 61.6488 90.9618 65.6794C90.9618 69.6183 89.313 73.1908 86.7481 75.8473Z" fill="#263F43"/>
<path id="Vector_3" d="M78.229 55.7863C78.0458 55.6031 77.771 55.4199 77.4046 55.2367C77.1298 55.1451 76.855 55.0535 76.5802 55.0535C76.4886 55.0535 76.4886 55.0535 76.4886 55.0535C76.397 55.0535 76.397 55.0535 76.397 55.0535C76.1222 55.0535 75.8474 55.1451 75.5726 55.2367C75.2977 55.3283 75.0229 55.5115 74.7481 55.7863L69.0687 61.4657C68.1527 62.3817 68.1527 63.939 69.0687 64.9466C69.9848 65.8626 71.542 65.8626 72.5496 64.9466L74.0153 63.481V73.5573C74.0153 74.9313 75.1145 76.0306 76.4886 76.0306C77.8626 76.0306 78.9619 74.9313 78.9619 73.5573V63.481L80.4275 64.9466C81.3435 65.8626 82.9008 65.8626 83.9084 64.9466C84.8245 64.0306 84.8245 62.4733 83.9084 61.4657L78.229 55.7863Z" fill="#263F43"/>
</g>
</g>
</g>
</g>
</svg>
